<?xml version="1.0" encoding="UTF-8"?>
<svg version="1.1" xmlns="http://www.w3.org/2000/svg" width="500" height="500">
<path d="M0 0 C165 0 330 0 500 0 C500 165 500 330 500 500 C335 500 170 500 0 500 C0 335 0 170 0 0 Z " fill="#FBFAF9" transform="translate(0,0)"/>
<path d="M0 0 C6.43187992 4.41256878 10.34941139 9.26604849 12 17 C12.08363974 19.83691625 12.11621679 22.64817989 12.09765625 25.484375 C12.0962413 26.29996887 12.09482635 27.11556274 12.09336853 27.95587158 C12.08778303 30.55395212 12.07523321 33.15194563 12.0625 35.75 C12.05748312 37.51432167 12.05292054 39.27864469 12.04882812 41.04296875 C12.03781835 45.36201256 12.02056369 49.68099154 12 54 C14.31 54.33 16.62 54.66 19 55 C19 55.66 19 56.32 19 57 C16.45716766 57.10871967 13.91904912 57.18762401 11.375 57.25 C10.66214844 57.28351563 9.94929688 57.31703125 9.21484375 57.3515625 C3.06982872 57.46431507 -0.35291212 55.47061535 -4.875 51.25 C-5.24625 50.8375 -5.6175 50.425 -6 50 C-6.680625 50.928125 -7.36125 51.85625 -8.0625 52.8125 C-11.60142381 56.9823183 -15.23180424 58.66026688 -20.578125 59.31640625 C-28.11830135 59.6428664 -33.86616045 58.14308462 -39.890625 53.5625 C-43.41992429 50.13215302 -44.40230864 47.35003513 -44.5625 42.4375 C-44.28831934 37.99577331 -43.72848951 34.63798602 -41 31 C-35.540432 27.46419495 -29.7510275 27.03960858 -23.4375 26.3125 C-21.89545898 26.11817383 -21.89545898 26.11817383 -20.32226562 25.91992188 C-15.84877398 25.37196988 -11.51213169 24.92836273 -7 25 C-7.21437566 12.91121816 -7.21437566 12.91121816 -12 2 C-15.31371 -0.20914 -16.3446021 -0.22481553 -20.1875 -0.125 C-21.775625 -0.08375 -23.36375 -0.0425 -25 0 C-25.33 5.94 -25.66 11.88 -26 18 C-34 18 -34 18 -37 16 C-39.23515842 12.64726237 -39.70609985 10.86329556 -39.40234375 6.921875 C-38.7028099 3.58041232 -37.59834607 2.22715378 -35 0 C-24.30106427 -6.37338945 -10.81749295 -5.81824148 0 0 Z " fill="#040404" transform="translate(215,218)"/>
<path d="M0 0 C4.35635146 3.21501953 7.41220889 7.44756418 9.1171875 12.5625 C9.20263041 13.89778807 9.23493375 15.23693888 9.23071289 16.57495117 C9.23063736 17.37555466 9.23056183 18.17615814 9.23048401 19.00102234 C9.22532272 19.86048965 9.22016144 20.71995697 9.21484375 21.60546875 C9.2134288 22.4890657 9.21201385 23.37266266 9.21055603 24.28303528 C9.20495819 27.10539128 9.19240611 29.92766797 9.1796875 32.75 C9.17467222 34.66341031 9.17010936 36.57682187 9.16601562 38.49023438 C9.15498947 43.18102014 9.13772633 47.87174663 9.1171875 52.5625 C11.4271875 52.8925 13.7371875 53.2225 16.1171875 53.5625 C16.1171875 54.2225 16.1171875 54.8825 16.1171875 55.5625 C13.74093573 55.67133596 11.36974774 55.75016696 8.9921875 55.8125 C8.32703125 55.84601563 7.661875 55.87953125 6.9765625 55.9140625 C1.84256708 56.01472908 -0.94496844 54.7886855 -4.8828125 51.5625 C-6.2578125 49.3125 -6.2578125 49.3125 -6.8828125 47.5625 C-7.5428125 47.5625 -8.2028125 47.5625 -8.8828125 47.5625 C-9.1096875 48.14 -9.3365625 48.7175 -9.5703125 49.3125 C-11.90744638 53.31901522 -15.65418831 55.80309029 -19.8828125 57.5625 C-28.20782128 58.72214199 -35.00179221 57.43114643 -41.8828125 52.5625 C-45.72041398 48.81626999 -46.14753045 45.73956215 -46.3203125 40.5625 C-46.13542962 35.90576255 -45.92114436 32.28690679 -42.8828125 28.5625 C-37.49882908 26.7006838 -32.00042288 25.80720903 -26.3828125 24.9375 C-25.56683594 24.8034375 -24.75085938 24.669375 -23.91015625 24.53125 C-19.17063502 23.78570734 -14.67959327 23.42065971 -9.8828125 23.5625 C-9.97032246 20.85270876 -10.07726143 18.14599252 -10.1953125 15.4375 C-10.22915039 14.29667969 -10.22915039 14.29667969 -10.26367188 13.1328125 C-10.49297242 8.29665551 -11.13278049 4.70328047 -13.8828125 0.5625 C-16.79620433 -1.53073531 -19.60437119 -1.78393884 -23.1328125 -2.0625 C-24.7003125 -2.18625 -26.2678125 -2.31 -27.8828125 -2.4375 C-27.8828125 3.8325 -27.8828125 10.1025 -27.8828125 16.5625 C-36.8828125 16.5625 -36.8828125 16.5625 -39.3828125 14.6875 C-41.90986922 11.10750298 -42.46550297 8.97429924 -41.8828125 4.5625 C-39.1619944 -0.17634185 -35.50627534 -3.38435512 -30.28515625 -5.0078125 C-19.55072038 -6.9277929 -9.40956931 -5.46992265 0 0 Z " fill="#040404" transform="translate(354.8828125,219.4375)"/>
<path d="M0 0 C3.06303578 -0.08115993 6.12390815 -0.14057409 9.1875 -0.1875 C10.48397461 -0.22520508 10.48397461 -0.22520508 11.80664062 -0.26367188 C16.69054544 -0.31980871 20.07963204 -0.26570457 24 3 C26.30874494 6.46311741 26.26142876 7.81852311 26.29052734 11.9050293 C26.30328705 13.12026779 26.31604675 14.33550629 26.32919312 15.58757019 C26.33141876 16.90316422 26.33364441 18.21875824 26.3359375 19.57421875 C26.34236752 20.94082274 26.34909603 22.30742536 26.35610962 23.67402649 C26.36808821 26.54142442 26.37179017 29.40870186 26.37060547 32.27612305 C26.37040294 35.93340362 26.39763191 39.58990127 26.43214989 43.24699688 C26.45450333 46.07220432 26.45844036 48.89722642 26.45738602 51.7225132 C26.46086653 53.72096649 26.48248782 55.7193619 26.50448608 57.71769714 C26.46382413 65.85238297 25.91055863 71.89945471 20.0703125 78.0234375 C19.42835938 78.46945312 18.78640625 78.91546875 18.125 79.375 C17.16980469 80.06722656 17.16980469 80.06722656 16.1953125 80.7734375 C10.70847085 83.83903942 5.64145892 84.36420657 -0.5 84.375 C-1.23347656 84.39949219 -1.96695313 84.42398438 -2.72265625 84.44921875 C-7.93416369 84.47718748 -10.87624825 83.4406001 -15 80 C-17.4677205 76.29841925 -17.65647105 73.29297513 -17 69 C-15.625 66.5 -15.625 66.5 -13 65 C-9.59261423 64.6795562 -6.43812659 64.81904597 -3 65 C-3 70.61 -3 76.22 -3 82 C3.04021417 80.71696793 3.04021417 80.71696793 4.84301758 76.8671875 C6.88771672 70.19086337 6.48303255 63.04289319 6.51171875 56.125 C6.52858634 54.58942243 6.54673935 53.0538585 6.56611633 51.51831055 C6.61339709 47.50055197 6.64334755 43.48284869 6.66955566 39.46490479 C6.69947259 35.35539841 6.74596434 31.24608215 6.79101562 27.13671875 C6.8767989 19.09123973 6.94425439 11.04574298 7 3 C4.69 2.67 2.38 2.34 0 2 C0 1.34 0 0.68 0 0 Z " fill="#040404" transform="translate(130,216)"/>
<path d="M0 0 C3.02138567 -0.08149592 6.04053905 -0.14073421 9.0625 -0.1875 C9.91005859 -0.21263672 10.75761719 -0.23777344 11.63085938 -0.26367188 C17.09930923 -0.32701299 21.20983082 0.07299386 26 3 C31.66611155 8.74072552 35.14594931 16.4468634 38.875 23.5 C39.46796875 24.60859375 40.0609375 25.7171875 40.671875 26.859375 C42.12055415 29.56980696 43.56307509 32.28332382 45 35 C46.92467543 32.11298685 48.07826788 29.52517454 49.34765625 26.30859375 C49.78787109 25.19935547 50.22808594 24.09011719 50.68164062 22.94726562 C51.13732422 21.78904297 51.59300781 20.63082031 52.0625 19.4375 C52.96936641 17.14425998 53.87688525 14.85127782 54.78515625 12.55859375 C55.18613525 11.54079834 55.58711426 10.52300293 56.00024414 9.47436523 C57 7 57 7 58 5 C55.03 4.01 52.06 3.02 49 2 C49 1.34 49 0.68 49 0 C56.26 0 63.52 0 71 0 C71 0.66 71 1.32 71 2 C70.31292969 2.10054687 69.62585938 2.20109375 68.91796875 2.3046875 C68.01691406 2.49289063 67.11585938 2.68109375 66.1875 2.875 C65.29417969 3.03742188 64.40085937 3.19984375 63.48046875 3.3671875 C60.51683184 5.318054 60.50366438 5.99885108 59.6394043 9.32250977 C57.89839535 15.52783139 55.62308117 21.46924315 53.2890625 27.47265625 C52.6140419 29.21729408 52.6140419 29.21729408 51.92538452 30.99717712 C50.73679234 34.06408973 49.54420732 37.12941592 48.35064697 40.19439697 C47.62542547 42.06140468 46.90427053 43.92992983 46.18457031 45.79907227 C44.78859364 49.42206648 43.38376896 53.04151111 41.9765625 56.66015625 C41.55243073 57.76351822 41.12829895 58.86688019 40.6913147 60.00367737 C33.99363815 77.1106205 33.99363815 77.1106205 27 83 C22.9493707 84.35020977 19.23538911 84.55728804 15 84 C12.12970131 82.20606332 10.50868362 81.01736724 9 78 C8.63895195 73.59521377 8.53148865 71.02220658 10.375 67 C14.47621734 63.87526298 17.93705233 64.66691134 23 65 C23 69.95 23 74.9 23 80 C27.93409886 77.03954068 29.50557023 75.13308571 31.875 70.25 C32.35453125 69.35667969 32.35453125 69.35667969 32.84375 68.4453125 C35.14192367 63.82898104 35.03760503 60.96039577 34 56 C32.73606353 52.93685343 32.73606353 52.93685343 31.04296875 49.96484375 C30.43018066 48.83546387 29.81739258 47.70608398 29.18603516 46.54248047 C28.52007082 45.34070167 27.85388797 44.13904394 27.1875 42.9375 C26.50991703 41.69731659 25.83333185 40.45658754 25.15771484 39.21533203 C23.78440244 36.69640922 22.40506922 34.18094484 21.02001953 31.66845703 C18.56436845 27.2134785 16.13502199 22.74427664 13.7043457 18.27563477 C11.80158926 14.7810221 9.89053282 11.29099551 7.97705078 7.80224609 C7.29622549 6.54641094 6.63884975 5.2776995 6 4 C4.02111039 3.27306096 2.02045442 2.60183749 0 2 C0 1.34 0 0.68 0 0 Z " fill="#060606" transform="translate(234,216)"/>
<path d="M0 0 C0 21.5 0 21.5 -1 24 C-7.25786037 29.84066968 -11.36077537 31.53403224 -19.8203125 31.37890625 C-26.23816567 30.61412522 -31.04378161 27.90964176 -35.625 23.4375 C-38.13339178 17.16652055 -37.82085175 10.80055304 -35.9375 4.375 C-33.29872121 1.14036793 -30.9464442 0.63460409 -27 0 C-25.97261719 -0.20625 -24.94523437 -0.4125 -23.88671875 -0.625 C-15.48100928 -2.12101058 -8.32858065 -1.7985307 0 0 Z " fill="#080707" transform="translate(346,246)"/>
<path d="M0 0 C0 0.33 0 0.66 0 1 C2.97 1.33 5.94 1.66 9 2 C9 24.46153846 9 24.46153846 8 27 C2.45213619 32.23964915 -2.70924795 33.47889338 -10.15234375 33.30859375 C-16.27376927 32.64522939 -21.15351261 30.22287092 -25.5625 25.9375 C-28.58459611 22.0423539 -28.68350169 18.39772733 -28.38671875 13.58984375 C-27.86959198 10.12666144 -27.11069703 7.8142627 -25 5 C-18.31178856 0.0718442 -8.05708929 -0.15774422 0 0 Z " fill="#090909" transform="translate(199,244)"/>
<path d="M0 0 C1.20451356 17.89562998 1.20451356 17.89562998 -3.125 23.0625 C-5.49439334 25.15426745 -7.20457415 26.08022516 -10.1875 27.25 C-13 27 -13 27 -15.3125 25.25 C-18.26792284 21.30943621 -18.16216835 17.91774872 -18.1875 13.125 C-18.20167969 11.91070312 -18.21585937 10.69640625 -18.23046875 9.4453125 C-18.01047255 6.15655579 -17.41715618 3.94634052 -16 1 C-10.58595744 0.22656535 -5.4683932 -0.04595288 0 0 Z " fill="#F2F1F0" transform="translate(346,246)"/>
<path d="M0 0 C0.10852923 2.87602455 0.1875515 5.74790832 0.25 8.625 C0.30027344 9.83736328 0.30027344 9.83736328 0.3515625 11.07421875 C0.45792023 17.61521897 -1.26130097 21.17001101 -5.875 25.9375 C-8 27 -8 27 -11.0625 27 C-14 26 -14 26 -15.6640625 23.90625 C-17.34250489 20.25490164 -17.36459593 17.50737922 -17.3125 13.5 C-17.30863281 12.2109375 -17.30476562 10.921875 -17.30078125 9.59375 C-17.02232668 6.26676034 -16.43926533 3.98174491 -15 1 C-14.01 0.835 -13.02 0.67 -12 0.5 C-11.1646875 0.36078125 -11.1646875 0.36078125 -10.3125 0.21875 C-6.87062201 -0.10683305 -3.45667598 -0.02880563 0 0 Z " fill="#F7F6F5" transform="translate(208,246)"/>
<path d="M0 0 C0 4.95 0 9.9 0 15 C4.14054132 12.51567521 6.75255007 10.43301849 10 7 C10.33 7.99 10.66 8.98 11 10 C9.671875 12.0078125 9.671875 12.0078125 7.75 14.125 C7.12609375 14.82882812 6.5021875 15.53265625 5.859375 16.2578125 C2.44341466 19.45848123 -1.3290143 19.32916112 -5.7734375 19.29296875 C-9.06805697 18.85946619 -10.76517216 17.37450458 -13 15 C-14.61095977 11.77808047 -14.44749207 8.49310971 -14 5 C-11.0057906 -1.53282052 -6.3739932 -0.41934166 0 0 Z " fill="#0C0C0C" transform="translate(257,281)"/>
<path d="M0 0 C-1.32 0.33 -2.64 0.66 -4 1 C-4 1.66 -4 2.32 -4 3 C-6.97 3 -9.94 3 -13 3 C-13 9.27 -13 15.54 -13 22 C-22 22 -22 22 -24.5 20.125 C-27.02705672 16.54500298 -27.58269047 14.41179924 -27 10 C-24.28076763 5.26392001 -20.633104 2.0840966 -15.43359375 0.421875 C-10.32973653 -0.46290282 -5.15702133 -0.21225545 0 0 Z " fill="#070606" transform="translate(340,214)"/>
<path d="M0 0 C0 0.33 0 0.66 0 1 C-1.65 1 -3.3 1 -5 1 C-5 1.66 -5 2.32 -5 3 C-9.455 3.495 -9.455 3.495 -14 4 C-14.33 9.94 -14.66 15.88 -15 22 C-23 22 -23 22 -26 20 C-28.23515842 16.64726237 -28.70609985 14.86329556 -28.40234375 10.921875 C-27.7028099 7.58041232 -26.59834607 6.22715378 -24 4 C-16.32947621 -0.56935499 -8.71098944 -0.45186689 0 0 Z " fill="#050505" transform="translate(204,214)"/>
<path d="M0 0 C2.16796875 0.41015625 2.16796875 0.41015625 4.79296875 2.47265625 C6.61209557 6.35897263 6.4291101 8.32999305 5.16796875 12.41015625 C2.58867701 15.28422418 0.94177282 16.24894707 -2.83203125 17.03515625 C-6.29428629 16.31385312 -7.88565937 15.04699366 -9.984375 12.19921875 C-11.48352752 9.03510883 -10.81038075 6.65093896 -9.83203125 3.41015625 C-7.01960191 -0.25711484 -4.38446184 -0.16450672 0 0 Z " fill="#090909" transform="translate(147.83203125,192.58984375)"/>
<path d="M0 0 C3.28079607 0.84836747 4.90003114 2.9118294 6.93359375 5.5 C8.46574263 8.56429776 8.16297923 11.1165642 7.93359375 14.5 C6.52898678 17.37305972 5.18848376 19.24510999 2.93359375 21.5 C1.94359375 21.17 0.95359375 20.84 -0.06640625 20.5 C0.26359375 19.84 0.59359375 19.18 0.93359375 18.5 C1.00526725 15.94842345 1.02667817 13.42527029 0.99609375 10.875 C0.99158203 10.16859375 0.98707031 9.4621875 0.98242188 8.734375 C0.9706325 6.98954725 0.95269699 5.244763 0.93359375 3.5 C-0.71640625 3.17 -2.36640625 2.84 -4.06640625 2.5 C-5.40757039 5.18232827 -5.23544646 7.31832259 -5.25390625 10.3125 C-5.26808594 11.35019531 -5.28226563 12.38789063 -5.296875 13.45703125 C-5.06355052 16.53770533 -4.36759511 18.71761592 -3.06640625 21.5 C-6.01416857 21.18132299 -7.61490443 20.97089808 -9.703125 18.79296875 C-12.17754888 14.63111541 -11.78568201 10.17529244 -11.06640625 5.5 C-8.16441036 0.87494404 -5.2686387 -0.31870782 0 0 Z " fill="#1F1F1F" transform="translate(247.06640625,304.5)"/>
<path d="M0 0 C4.875 0.875 4.875 0.875 6 2 C6.12712692 4.45088882 6.18520683 6.86110545 6.1875 9.3125 C6.19974609 9.98990234 6.21199219 10.66730469 6.22460938 11.36523438 C6.23551608 15.08441947 6.05297477 17.84344986 4 21 C2.125 20.8125 2.125 20.8125 0 20 C-1.93494713 16.24512008 -2.27099548 13.06359905 -2.25 8.875 C-2.25515625 7.84117187 -2.2603125 6.80734375 -2.265625 5.7421875 C-2 3 -2 3 0 0 Z " fill="#F2F1F0" transform="translate(243,306)"/>
<path d="M0 0 C2.6875 -0.5 2.6875 -0.5 6 0 C9.08144474 3.50733548 10.94104567 7.84465581 13 12 C13.99 12 14.98 12 16 12 C15.44271087 15.34373475 14.64826111 18.03312999 13 21 C12.34 21 11.68 21 11 21 C8.69 16.38 6.38 11.76 4 7 C3.67 11.29 3.34 15.58 3 20 C3.66 20.33 4.32 20.66 5 21 C3.35 21 1.7 21 0 21 C0.66 20.67 1.32 20.34 2 20 C2 13.73 2 7.46 2 1 C1.34 0.67 0.68 0.34 0 0 Z " fill="#1A1919" transform="translate(269,305)"/>
<path d="M0 0 C0 1.98 0 3.96 0 6 C-0.7425 5.34 -1.485 4.68 -2.25 4 C-4.97242945 1.60788553 -4.97242945 1.60788553 -9 2 C-10.34116414 4.68232827 -10.16904021 6.81832259 -10.1875 9.8125 C-10.20167969 10.85019531 -10.21585938 11.88789063 -10.23046875 12.95703125 C-9.99714427 16.03770533 -9.30118886 18.21761592 -8 21 C-10.94776232 20.68132299 -12.54849818 20.47089808 -14.63671875 18.29296875 C-17.11668158 14.12179918 -16.70000964 9.68521301 -16 5 C-12.3159159 -1.47890652 -6.65771654 -0.52468869 0 0 Z " fill="#0F0F0F" transform="translate(221,305)"/>
<path d="M0 0 C1.65 0 3.3 0 5 0 C5 6.93 5 13.86 5 21 C2.36 21 -0.28 21 -3 21 C-2.34 20.67 -1.68 20.34 -1 20 C-1.09539062 18.72382813 -1.19078125 17.44765625 -1.2890625 16.1328125 C-1.4015951 14.46357888 -1.51354407 12.79430585 -1.625 11.125 C-1.68945312 10.28324219 -1.75390625 9.44148438 -1.8203125 8.57421875 C-1.871875 7.76855469 -1.9234375 6.96289062 -1.9765625 6.1328125 C-2.02893066 5.38918457 -2.08129883 4.64555664 -2.13525391 3.87939453 C-2 2 -2 2 0 0 Z " fill="#1E1D1D" transform="translate(290,305)"/>
<path d="M0 0 C0.99 0.33 1.98 0.66 3 1 C2.67 1.66 2.34 2.32 2 3 C1.8771223 4.93460941 1.82445112 6.87402904 1.8125 8.8125 C1.79832031 9.85019531 1.78414062 10.88789063 1.76953125 11.95703125 C2.00285573 15.03770533 2.69881114 17.21761592 4 20 C1.05406592 19.68152064 -0.54896743 19.46821476 -2.640625 17.296875 C-5.08054281 13.17425525 -4.66826856 8.63567347 -4 4 C-2 1.3125 -2 1.3125 0 0 Z " fill="#111111" transform="translate(240,306)"/>
<path d="M0 0 C4.29 0 8.58 0 13 0 C11.68 0.33 10.36 0.66 9 1 C9 1.66 9 2.32 9 3 C6.03 3 3.06 3 0 3 C0 9.27 0 15.54 0 22 C-0.33 22 -0.66 22 -1 22 C-1.02895225 18.70835171 -1.0467823 15.41673601 -1.0625 12.125 C-1.07506836 10.71927734 -1.07506836 10.71927734 -1.08789062 9.28515625 C-1.09111328 8.38925781 -1.09433594 7.49335938 -1.09765625 6.5703125 C-1.10289307 5.74289551 -1.10812988 4.91547852 -1.11352539 4.06298828 C-1 2 -1 2 0 0 Z " fill="#444443" transform="translate(327,214)"/>
<path d="M0 0 C4.62 0 9.24 0 14 0 C14 0.33 14 0.66 14 1 C12.35 1 10.7 1 9 1 C9 1.66 9 2.32 9 3 C5.7 3.33 2.4 3.66 -1 4 C-0.67 2.68 -0.34 1.36 0 0 Z " fill="#3E3E3D" transform="translate(190,214)"/>
<path d="M0 0 C0.33 0.99 0.66 1.98 1 3 C-1.31 4.98 -3.62 6.96 -6 9 C-6.33 8.34 -6.66 7.68 -7 7 C-2.25 1.125 -2.25 1.125 0 0 Z " fill="#161616" transform="translate(345,266)"/>
<path d="M0 0 C6.27 0 12.54 0 19 0 C19 0.33 19 0.66 19 1 C14.38 1 9.76 1 5 1 C5 1.66 5 2.32 5 3 C3.35 2.67 1.7 2.34 0 2 C0 1.34 0 0.68 0 0 Z " fill="#1A1A19" transform="translate(130,216)"/>
<path d="M0 0 C0.33 0.99 0.66 1.98 1 3 C-1.97 5.475 -1.97 5.475 -5 8 C-5.33 6.68 -5.66 5.36 -6 4 C-4.02 2.68 -2.04 1.36 0 0 Z " fill="#1E1E1E" transform="translate(207,267)"/>
<path d="M0 0 C3.63 0 7.26 0 11 0 C11 1.98 11 3.96 11 6 C10.29875 5.360625 9.5975 4.72125 8.875 4.0625 C5.77158767 1.83613898 3.75379861 1.34919057 0 1 C0 0.67 0 0.34 0 0 Z " fill="#3E3E3E" transform="translate(210,305)"/>
</svg>
