<?xml version="1.0" encoding="UTF-8"?>
<svg version="1.1" xmlns="http://www.w3.org/2000/svg" width="2250" height="800">
<path d="M0 0 C2.59569698 -0.00298935 5.19139011 -0.0071035 7.78708506 -0.01150417 C16.02574902 -0.02511286 24.26440348 -0.03480506 32.50307786 -0.03870606 C40.87559836 -0.04269937 49.24800383 -0.05483483 57.62048578 -0.08106136 C120.20731158 -0.27277996 182.31375292 1.49304441 244.6824975 7.20018864 C246.1409408 7.33330448 246.1409408 7.33330448 247.6288476 7.46910954 C320.57655594 14.18587316 393.53145739 25.72375863 463.6824975 47.20018864 C465.47469721 47.74860416 465.47469721 47.74860416 467.30310297 48.30809879 C491.64476554 55.86884528 516.26556164 64.96033954 538.6824975 77.20018864 C540.15514784 77.98535598 541.62780443 78.77051158 543.10046625 79.55565739 C567.21185376 92.55006205 591.23917219 108.93257279 607.6824975 131.20018864 C608.29520502 132.02510807 608.29520502 132.02510807 608.92029047 132.86669254 C615.82553244 142.28721008 620.95955578 152.11318638 624.6824975 163.20018864 C625.2074682 164.76216984 625.2074682 164.76216984 625.74304438 166.35570621 C626.84135643 170.85027999 627.04222038 174.97948211 627.0887475 179.58690739 C627.10584772 180.93254513 627.10584772 180.93254513 627.1232934 182.30536747 C627.14212255 184.20393568 627.15523312 186.1025682 627.16296625 188.00121403 C627.18214143 190.83506582 627.24413695 193.66585943 627.3074975 196.49901676 C627.78067444 237.35924983 601.05761849 273.28140296 573.68063593 301.44272709 C571.41563764 303.74117075 569.13603475 306.02428349 566.84582758 308.29760075 C565.10995019 310.02267341 563.3851466 311.75830854 561.66101313 313.49511051 C554.97467283 320.18947014 548.10588265 326.32331025 540.6824975 332.20018864 C539.52300511 333.17111358 538.36840036 334.14794516 537.22156 335.13378239 C529.90466317 341.42082109 522.42030298 347.43723397 514.6824975 353.20018864 C514.05875238 353.66586246 513.43500727 354.13153629 512.79236078 354.61132145 C477.34831944 380.94317765 439.40930471 403.92997052 400.48083735 424.69579411 C397.76168636 426.15761651 395.05774461 427.6437784 392.35827875 429.14159489 C359.92807147 447.1194377 326.23286218 462.45403834 292.38513422 477.54442692 C288.56393103 479.25076313 284.74995107 480.97292047 280.93640375 482.69628239 C279.01144508 483.56466912 277.08636005 484.43277506 275.16122675 485.30077457 C273.3855723 486.10243975 271.61127326 486.90710502 269.83703852 487.71190739 C262.16975447 491.16482718 254.41999412 494.35622972 246.59973383 497.4405756 C243.40584554 498.70600081 240.22257378 499.99756806 237.03796625 501.28612614 C140.8163838 540.1159482 42.18641564 573.15596671 -84.3175025 608.20018864 C-85.9299082 608.63431065 -85.9299082 608.63431065 -87.57488775 609.0772028 C-179.50764412 633.79817899 -272.26837927 655.12861209 -849.887815 734.10253239 C-850.88634497 734.16340534 -851.88487494 734.2242783 -852.91366339 734.28699589 C-905.5493226 737.39748582 -958.1127133 738.53973601 -1010.82473069 738.45732671 C-1016.22591103 738.44976246 -1021.62701815 738.45253364 -1027.02819586 738.46093082 C-1063.83853662 738.51660969 -1100.54843921 738.17957296 -1137.3175025 736.20018864 C-1138.78423621 736.12357742 -1140.25098163 736.04718989 -1141.71774054 735.97106266 C-1150.04763313 735.53451791 -1158.37073215 735.02033301 -1166.6925025 734.45018864 C-1167.91225775 734.36781956 -1169.132013 734.28545048 -1170.38873053 734.20058537 C-1266.97146264 727.60912578 -1364.86409164 714.9590754 -1560.3175025 623.20018864 C-1561.65748297 621.95688786 -1561.65748297 621.95688786 -1563.02453375 620.68846989 C-1580.43161649 604.01175425 -1594.39656752 581.42997676 -1594.981565 556.82909489 C-1595.00684637 554.07007874 -1595.00081692 551.31436348 -1594.96935797 548.55541325 C-1594.94255647 545.76830118 -1594.96924493 542.9852261 -1595.00109625 540.19823551 C-1595.03530734 523.96197338 -1591.45866419 510.36021209 -1584.2550025 495.76268864 C-1583.78385015 494.7953278 -1583.31269781 493.82796696 -1582.82726812 492.83129215 C-1573.75999697 474.68331022 -1561.34368204 458.46740704 -1547.575315 443.64159489 C-1545.64406397 441.55330442 -1543.7843219 439.42927329 -1541.9425025 437.26268864 C-1535.29710598 429.62755222 -1527.99509545 422.44727076 -1520.2862525 415.89159489 C-1518.03968743 413.96151021 -1515.87166345 411.95600724 -1513.6925025 409.95018864 C-1508.10737826 404.9167864 -1502.22844927 400.32034144 -1496.28185797 395.72753239 C-1494.2521245 394.14935533 -1492.23883383 392.5519341 -1490.22765875 390.95018864 C-1473.66391063 377.81544021 -1456.26254924 365.84022331 -1438.40978765 354.52880192 C-1436.23136347 353.14548985 -1434.06130658 351.74966035 -1431.89172125 350.35253239 C-1419.25602984 342.25052383 -1406.34433352 334.65401106 -1393.3175025 327.20018864 C-1392.30381598 326.61978825 -1391.29012945 326.03938786 -1390.24572515 325.44139957 C-1376.12327276 317.38235473 -1361.81974671 309.73828927 -1347.356565 302.31346989 C-1342.72758095 299.93648161 -1338.13733985 297.50076907 -1333.5675025 295.01268864 C-1325.78494678 290.8396893 -1317.81392596 287.08210276 -1309.8331275 283.30565739 C-1305.26169649 281.13836185 -1300.71324723 278.92800277 -1296.1768775 276.68846989 C-1264.46865489 261.06401153 -1231.7658054 247.80397141 -1199.07514715 234.39067936 C-1194.96812514 232.70535525 -1190.86420788 231.01401524 -1186.77160406 229.29393864 C-1179.21704781 226.12752918 -1171.63410712 223.18012561 -1163.89359808 220.49865055 C-1158.45117945 218.61231178 -1153.04913233 216.63280815 -1147.65734625 214.60643864 C-1146.82526648 214.29406254 -1145.9931867 213.98168644 -1145.13589239 213.6598444 C-1143.40599272 213.01019422 -1141.67616627 212.36034904 -1139.94640875 211.71032047 C-1120.50070599 204.41200814 -1100.96745413 197.40145119 -1081.3333869 190.62734318 C-1076.96224583 189.11888336 -1072.59631365 187.59721425 -1068.23719549 186.05436039 C-1001.73397397 162.53010126 -933.53710618 143.22519945 -865.42419195 125.03106022 C-862.48091873 124.24389365 -859.53869186 123.45294677 -856.59679937 122.66063786 C-779.8595711 102.02126961 -702.13387801 84.74175246 -78.89953375 1.96190739 C-76.99924162 1.86703289 -76.99924162 1.86703289 -75.06055975 1.77024174 C-71.64578746 1.60618542 -68.23095869 1.45156728 -64.81534338 1.30650043 C-63.02956862 1.23049522 -61.24387617 1.15254611 -59.45824194 1.07330799 C-39.63435709 0.20865979 -19.8388889 0.02184058 0 0 Z " fill="#10218B" transform="translate(1608.3175024986267,30.799811363220215)"/>
<path d="M0 0 C31.02 0 62.04 0 94 0 C98.63205216 28.29762777 103.23138148 56.59980282 107.77416992 84.91186523 C109.92201305 98.29717172 112.07654463 111.68132739 114.25 125.0625 C114.3682312 125.79040741 114.4864624 126.51831482 114.60827637 127.26828003 C114.78236023 128.33998947 114.78236023 128.33998947 114.95996094 129.43334961 C115.18945636 130.84619088 115.41894859 132.25903267 115.6484375 133.671875 C115.75929688 134.35431778 115.87015625 135.03676056 115.984375 135.73988342 C117.28717154 143.76313265 118.58141342 151.78776152 119.875 159.8125 C119.98477173 160.49345734 120.09454346 161.17441467 120.2076416 161.87600708 C120.80532007 165.58396838 121.4027705 169.29196636 122 173 C122.33 173 122.66 173 123 173 C124.66726789 162.7292642 126.33385185 152.4584175 128 142.1875 C128.12883072 141.39332924 128.25766144 140.59915848 128.39039612 139.78092194 C135.94795326 93.19067882 143.47210955 46.59504607 151 0 C182.02 0 213.04 0 245 0 C245.65406047 6.54060473 246.16869214 12.85750226 246.26538086 19.39672852 C246.2818611 20.28409038 246.29834133 21.17145224 246.31532097 22.08570385 C246.36889885 25.01671778 246.41680455 27.94779676 246.46484375 30.87890625 C246.50240199 32.97577662 246.54039142 35.07263931 246.57878113 37.16949463 C246.6600262 41.63946147 246.73904725 46.10945935 246.81622314 50.57949829 C247.02010669 62.37088377 247.23783588 74.16201562 247.45703125 85.953125 C247.47899818 87.14067194 247.50096512 88.32821888 247.52359772 89.55175209 C247.8216453 105.59323984 248.16345986 121.63287349 248.57421875 137.671875 C248.60920754 139.04368329 248.60920754 139.04368329 248.64490318 140.44320488 C248.86326913 148.97899823 249.08815697 157.51458308 249.32555676 166.04986858 C249.9151397 187.37707497 250.07657718 208.66231614 250 230 C231.19 230 212.38 230 193 230 C191.78434803 190.28551151 191.88002133 150.58868598 191.92797339 110.86018836 C191.93935526 101.25607257 191.94470041 91.6519559 191.94967639 82.04783499 C191.96000239 62.36521568 191.97747784 42.68260896 192 23 C191.34 23 190.68 23 190 23 C189.89173889 23.64676697 189.78347778 24.29353394 189.67193604 24.9598999 C185.83456876 47.77679808 181.58601551 70.51213493 177.31325531 93.25073624 C175.78653501 101.38033005 174.26537094 109.51096696 172.74335861 117.64144325 C172.36843328 119.64414103 171.99343615 121.64682537 171.61836624 123.64949608 C168.67508398 139.3652598 165.75376361 155.084771 162.875 170.8125 C162.70368561 171.74830902 162.53237122 172.68411804 162.35586548 173.64828491 C161.7046426 177.20686339 161.05378498 180.76550819 160.40370178 184.32429504 C158.59235672 194.23900393 156.76473422 204.15070937 154.9375 214.0625 C153.968125 219.321875 152.99875 224.58125 152 230 C132.53 230 113.06 230 93 230 C92.21238281 225.75898438 91.42476562 221.51796875 90.61328125 217.1484375 C90.20317055 214.94017525 90.20317055 214.94017525 89.78477478 212.68730164 C88.5184232 205.86856419 87.2521028 199.04982095 85.98588276 192.23105907 C85.22758384 188.14752596 84.46926551 184.06399646 83.7109375 179.98046875 C83.55698202 179.15143099 83.40302654 178.32239323 83.24440575 177.46823311 C81.18728713 166.39100593 79.12929472 155.31394154 77.0704155 144.23704147 C69.68402801 104.49680259 62.32833798 64.75098558 55 25 C53.92190788 29.39397092 53.83249532 33.69647449 53.80381775 38.19404602 C53.79479622 39.01502862 53.78577469 39.83601121 53.77647978 40.68187207 C53.74743269 43.43022365 53.725172 46.1785879 53.70288086 48.92700195 C53.68343725 50.89816182 53.66357523 52.8693176 53.64332581 54.84046936 C53.58954565 60.19120805 53.54162675 65.54198516 53.49474788 70.89278817 C53.44476216 76.48488871 53.38940293 82.07693596 53.33460999 87.66899109 C53.23167193 98.2581652 53.13357719 108.84737844 53.03721577 119.43661422 C52.92727568 131.49215973 52.81194651 143.54765181 52.69616115 155.60314238 C52.45810436 180.40204124 52.22753805 205.20100224 52 230 C33.19 230 14.38 230 -5 230 C-5.08189499 203.0565482 -4.83071563 176.15673234 -4.2252152 149.22173953 C-4.11355175 144.22178319 -4.0063067 139.22173136 -3.89830017 134.22169495 C-3.71729848 125.87469525 -3.53272142 117.52778059 -3.34594727 109.1809082 C-3.13054171 99.55209135 -2.92146322 89.92315163 -2.71548563 80.29412884 C-2.51538041 70.94796882 -2.3105177 61.60191864 -2.10360527 52.25590706 C-2.01627974 48.30675607 -1.93067911 44.35757338 -1.84651375 40.40835381 C-1.74774581 35.78263898 -1.64482944 31.15703461 -1.53871346 26.5314827 C-1.50057176 24.83962391 -1.46386181 23.14773213 -1.42870712 21.45580864 C-1.38043152 19.1437658 -1.32691782 16.83190019 -1.27210999 14.52000427 C-1.2435344 13.22890464 -1.21495882 11.937805 -1.18551731 10.60758114 C-1.00279757 7.05440181 -0.50315942 3.52211591 0 0 Z " fill="#FDFEFE" transform="translate(768,284)"/>
<path d="M0 0 C28.38 0 56.76 0 86 0 C90.05526549 13.32444375 94.10610699 26.6399431 97.99609375 40.01171875 C98.43765305 41.52605445 98.87931138 43.04036129 99.32106018 44.55464172 C100.23514436 47.68909701 101.14834016 50.8238091 102.06079102 53.95874023 C103.20319814 57.88362486 104.3474584 61.80796612 105.49232197 65.73213482 C110.17203613 81.77434226 114.83302471 97.82120573 119.39109802 113.89848328 C121.3312996 120.72709928 123.35013466 127.5274564 125.4375 134.3125 C129.79548238 148.491777 133.89140926 162.74687931 138 177 C138.03130506 168.18751783 138.05128561 159.37503032 138.0625 150.5625 C138.06335602 149.88982086 138.06421204 149.21714172 138.06509399 148.52407837 C138.08745608 128.51001202 137.91351028 108.51057825 137.5 88.5 C136.89022073 58.99157832 136.93021918 29.51728844 137 0 C155.48 0 173.96 0 193 0 C193 74.91 193 149.82 193 227 C165.94 227 138.88 227 111 227 C108.133125 217.533125 105.26625 208.06625 102.3125 198.3125 C95.15310923 174.68026941 87.98002413 151.05225378 80.78858566 127.42975616 C80.12530828 125.25101266 79.46207948 123.07225437 78.79885864 120.89349365 C74.7523786 107.60064161 70.70441723 94.30824291 66.65145874 81.0173645 C65.32201114 76.65742713 63.99321539 72.29729123 62.66448975 67.93713379 C61.77595431 65.02263317 60.88630058 62.10847556 59.99658203 59.19433594 C59.47162386 57.47202222 58.9467179 55.74969259 58.421875 54.02734375 C58.18755768 53.26113205 57.95324036 52.49492035 57.71182251 51.70549011 C56.73165212 48.48517155 55.79793793 45.2699892 55 42 C54.88801507 70.02924335 54.95030724 98.03802686 55.5 126.0625 C55.95477068 149.29425231 56.08773646 172.51446033 56.0625 195.75 C56.06121597 196.93403349 56.06121597 196.93403349 56.05990601 198.14198685 C56.04865519 207.76136043 56.02561367 217.38064249 56 227 C37.52 227 19.04 227 0 227 C0 152.09 0 77.18 0 0 Z " fill="#FEFEFE" transform="translate(1518,284)"/>
<path d="M0 0 C19.14 0 38.28 0 58 0 C58.0093457 5.41083984 58.01869141 10.82167969 58.02832031 16.39648438 C58.06206801 34.261979 58.11740348 52.12735838 58.18390274 69.9927597 C58.22369804 80.8259048 58.25608808 91.65897721 58.27099609 102.4921875 C58.28401002 111.93532837 58.31096818 121.37830931 58.35461307 130.82136011 C58.37723359 135.82058508 58.39291032 140.81961275 58.39188385 145.81889343 C58.3911376 150.52707156 58.40907468 155.23481347 58.44116783 159.94287872 C58.44966697 161.66815959 58.45141665 163.39348938 58.44580269 165.11878204 C58.23937736 177.16903106 58.23937736 177.16903106 63 188 C68.05162241 192.92209363 72.84913261 194.29822638 79.8125 194.375 C86.72319012 194.25933991 91.34412096 193.26115688 96.51953125 188.64453125 C101.63850996 183.14199794 102.24774105 176.6554767 102.2784729 169.43861389 C102.2842653 168.70984415 102.2900577 167.98107441 102.29602563 167.23022074 C102.31293312 164.80585982 102.31589408 162.38169034 102.31884766 159.95727539 C102.32815223 158.21241799 102.33832169 156.46756502 102.34928894 154.72271729 C102.3765433 149.99808525 102.39172483 145.27348296 102.40471697 140.54879308 C102.42036748 135.60666707 102.44715159 130.66460162 102.4727478 125.72251892 C102.51950158 116.36941789 102.55626216 107.01630542 102.58942068 97.66314739 C102.62766608 87.01260609 102.67706992 76.36212566 102.72740483 65.71163571 C102.83067414 43.80779652 102.91847789 21.90393167 103 0 C122.14 0 141.28 0 161 0 C161.06785032 23.21002709 161.12305926 46.41997325 161.15543652 69.6300745 C161.17087273 80.40812302 161.19189987 91.18610532 161.22631836 101.96411133 C161.25632043 111.36365491 161.27559857 120.76315051 161.28226548 130.16274065 C161.2861595 135.13481525 161.29524259 140.10675263 161.31719017 145.07878304 C161.33772646 149.7696142 161.34379957 154.4602531 161.33932304 159.15112495 C161.34014065 160.86220855 161.3460033 162.57329934 161.35761642 164.28434372 C161.44341335 177.59102559 160.86570724 191.21990606 154.5 203.25 C154.15525635 203.91128906 153.8105127 204.57257813 153.45532227 205.25390625 C145.55867951 219.59561581 132.24352585 227.69053245 116.9375 232.375 C104.72190213 235.7393989 92.16358304 236.44460821 79.5625 236.4375 C78.82420959 236.43790283 78.08591919 236.43830566 77.32525635 236.4387207 C54.20351931 236.36648279 31.34504379 232.31301894 14.26953125 215.5703125 C1.12970339 200.68906167 -0.31107242 182.99482239 -0.22705078 164.04418945 C-0.22648573 162.24948635 -0.22680506 160.45478279 -0.22793579 158.66007996 C-0.22850664 153.81786944 -0.21679596 148.9757592 -0.20278788 144.13357186 C-0.1902356 139.06205019 -0.18910648 133.9905259 -0.18673706 128.91899109 C-0.18053547 119.32869145 -0.16414259 109.73843773 -0.14403808 100.14815825 C-0.12163788 89.2242964 -0.1106753 78.3004323 -0.10064721 67.37655318 C-0.07977514 44.91767084 -0.04311548 22.45885141 0 0 Z " fill="#FEFEFE" transform="translate(1293,284)"/>
<path d="M0 0 C1.24716797 0.93972656 1.24716797 0.93972656 2.51953125 1.8984375 C12.57900315 10.42126566 16.90105655 22.60422618 20 35 C20 44.24 20 53.48 20 63 C0.86 63 -18.28 63 -38 63 C-38.33 55.41 -38.66 47.82 -39 40 C-43.05469674 31.58695182 -43.05469674 31.58695182 -50.171875 26.921875 C-56.98529853 24.70092479 -67.13796348 24.61371884 -73.6875 27.625 C-79.21883442 31.09276815 -82.42006125 35.65464735 -84 42 C-84.29418507 45.98452045 -84.28343846 49.95893545 -84.2746582 53.95288086 C-84.27976913 55.15195572 -84.28488007 56.35103058 -84.29014587 57.58644104 C-84.30163979 60.86335827 -84.3041194 64.1401181 -84.30158257 67.41705012 C-84.30051 70.1580178 -84.3054035 72.89896236 -84.310188 75.63992506 C-84.32126819 82.10884472 -84.32172889 88.57770631 -84.31567383 95.04663086 C-84.30963371 101.70863983 -84.32194929 108.37043762 -84.3432439 115.03241056 C-84.36088555 120.76339272 -84.36685725 126.49430781 -84.36360615 132.22531611 C-84.36179733 135.64326479 -84.36438925 139.06106278 -84.37832069 142.47898674 C-84.39066202 146.29206474 -84.38390667 150.10465437 -84.37231445 153.91772461 C-84.37995819 155.04262299 -84.38760193 156.16752136 -84.39547729 157.32650757 C-84.3456104 164.75080396 -83.5846182 169.73121816 -78.875 175.6875 C-72.96075772 180.44460792 -67.18083339 182.65309283 -59.55859375 182.33203125 C-53.77303754 181.58123388 -48.09234228 179.87633399 -43 177 C-41.84077872 175.26857146 -41.84077872 175.26857146 -41 173 C-40.49621826 172.000896 -39.99243652 171.00179199 -39.47338867 169.97241211 C-37.52563391 165.41249088 -37.52376192 161.02946038 -37.48828125 156.12890625 C-37.46135445 154.74541237 -37.46135445 154.74541237 -37.43388367 153.33396912 C-37.38003264 150.41019152 -37.34596615 147.4865748 -37.3125 144.5625 C-37.27930466 142.57094128 -37.24481296 140.57940371 -37.20898438 138.58789062 C-37.12189818 133.72524049 -37.06161462 128.86330536 -37 124 C-44.92 124 -52.84 124 -61 124 C-61 112.78 -61 101.56 -61 90 C-33.94 90 -6.88 90 21 90 C21.061875 101.323125 21.12375 112.64625 21.1875 124.3125 C21.22846802 129.61308472 21.22846802 129.61308472 21.27026367 135.02075195 C21.49223547 184.00894097 21.49223547 184.00894097 5 203 C3.34466005 204.34736973 1.67987227 205.68334336 0 207 C-0.33 207.66 -0.66 208.32 -1 209 C-4.88618485 211.06704832 -8.96687128 212.7403373 -13 214.5 C-14.66869141 215.24830078 -14.66869141 215.24830078 -16.37109375 216.01171875 C-22.54091361 218.72236988 -28.34943963 220.9175269 -35 222 C-35.97614258 222.18006592 -36.95228516 222.36013184 -37.95800781 222.5456543 C-45.918649 223.91894276 -53.67996379 224.35174024 -61.75 224.3125 C-63.58643066 224.30404053 -63.58643066 224.30404053 -65.45996094 224.29541016 C-88.8743643 223.98301191 -111.13183883 218.00802983 -128 201 C-134.17078519 194.4817337 -137.23140605 187.47949756 -140 179 C-140.23589844 178.31292969 -140.47179688 177.62585938 -140.71484375 176.91796875 C-144.91076381 162.8601052 -143.17896133 146.05940712 -143.203125 131.578125 C-143.20595238 130.42407921 -143.20877975 129.27003342 -143.21169281 128.08101654 C-143.2265924 121.97718587 -143.23588091 115.87337828 -143.24023438 109.76953125 C-143.24571543 103.52214797 -143.26976288 97.27498297 -143.29820633 91.027668 C-143.31697513 86.16985482 -143.32204576 81.31209287 -143.32357025 76.45424652 C-143.3265636 74.15333611 -143.33447712 71.85242586 -143.34775543 69.55155182 C-143.4784262 45.17688485 -142.23181274 21.84580217 -124.9921875 2.94140625 C-95.74198146 -25.5632063 -30.84819586 -24.9750643 0 0 Z " fill="#FDFDFE" transform="translate(1914,294)"/>
<path d="M0 0 C12.0484075 11.30121944 15.37790176 23.6107698 16.8125 39.75 C16.8125 45.36 16.8125 50.97 16.8125 56.75 C-2.3275 56.75 -21.4675 56.75 -41.1875 56.75 C-41.5175 50.15 -41.8475 43.55 -42.1875 36.75 C-45.17540078 29.67390013 -45.17540078 29.67390013 -50.1875 25.8125 C-51.1775 25.24208984 -51.1775 25.24208984 -52.1875 24.66015625 C-59.10332276 21.5129166 -66.18335419 22.2013488 -73.14453125 24.77734375 C-77.54831957 26.87398484 -79.67293503 29.82733179 -82 34 C-84.12365249 40.70627101 -83.92035909 47.21490219 -81.1875 53.75 C-73.22688996 66.46560529 -56.69860096 73.17237688 -43.89013672 79.71484375 C-28.22189107 87.74767087 -12.56810935 96.19143107 0.8125 107.75 C1.71097656 108.52472656 2.60945312 109.29945313 3.53515625 110.09765625 C15.86058981 121.53075073 21.44795425 134.99125212 22.0859375 151.62890625 C22.55757028 172.28327764 20.88284652 191.54778279 6.8125 207.75 C-3.9071527 218.36946903 -16.76422051 223.19268892 -31.1875 226.75 C-31.84741943 226.92442627 -32.50733887 227.09885254 -33.18725586 227.27856445 C-39.52114734 228.8497347 -45.74234436 229.22520197 -52.25 229.4375 C-53.90817749 229.49393677 -53.90817749 229.49393677 -55.59985352 229.55151367 C-74.92889465 230.11150997 -93.60608214 228.34242226 -111.1875 219.75 C-111.97253906 219.38261719 -112.75757813 219.01523437 -113.56640625 218.63671875 C-126.76213771 211.95853117 -136.22525559 200.52814672 -141.1875 186.75 C-145.57828244 172.85756436 -144.1875 159.54593305 -144.1875 144.75 C-123.7275 144.75 -103.2675 144.75 -82.1875 144.75 C-81.6925 159.105 -81.6925 159.105 -81.1875 173.75 C-76.81559209 181.40083885 -74.46534614 184.42030677 -66.1875 186.75 C-58.07756667 187.56764861 -50.03719852 187.64912212 -43.1875 182.75 C-37.63043695 176.19551537 -36.70707083 169.26913302 -36.88671875 160.9296875 C-37.73146489 151.99951406 -43.53743225 146.32193625 -50.1875 140.75 C-59.4983525 134.01297551 -69.65574638 128.63150465 -79.71337891 123.11083984 C-132.1989902 94.24219988 -132.1989902 94.24219988 -141.1875 66.75 C-145.75210678 49.08592273 -143.69913072 29.9014502 -135.1875 13.75 C-133.05461076 10.55316366 -130.70842289 7.64627157 -128.1875 4.75 C-127.84485107 4.22986328 -127.50220215 3.70972656 -127.14916992 3.17382812 C-122.70901384 -3.02085714 -116.22271415 -5.45078804 -109.41186523 -8.27734375 C-107.38038735 -9.12275802 -105.36512615 -10.00011876 -103.34960938 -10.8828125 C-96.63622372 -13.76946643 -90.57109759 -15.96203969 -83.1875 -16.25 C-82.21425781 -16.35441406 -81.24101562 -16.45882813 -80.23828125 -16.56640625 C-53.1963359 -18.99670947 -21.71788247 -18.56008947 0 0 Z " fill="#FDFEFE" transform="translate(470.1875,293.25)"/>
<path d="M0 0 C33.99 0 67.98 0 103 0 C105.97 16.5 108.94 33 112 50 C113.57717923 58.63559984 115.15709872 67.27040229 116.75390625 75.90234375 C117.14795041 78.03713897 117.54190368 80.17195097 117.93577576 82.30677795 C118.74224487 86.67672833 119.54939067 91.04655282 120.35717773 95.41625977 C121.36517899 100.86902959 122.37193951 106.32202754 123.37826729 111.77510643 C125.91439237 125.51756222 128.45496447 139.25919159 131 153 C131.18751579 154.01241005 131.37503159 155.0248201 131.56822968 156.06790924 C132.6641699 161.98370351 133.76133343 167.89926912 134.86005974 173.81454659 C135.1928075 175.60635521 135.5253249 177.39820663 135.85757637 179.19010735 C138.66217125 194.31228063 141.58028495 209.41069526 144.57617188 224.49609375 C145 227 145 227 145 230 C124.54 230 104.08 230 83 230 C80.75011777 217.62564774 80.75011777 217.62564774 79.84594727 211.4140625 C79.69610461 210.39032658 79.69610461 210.39032658 79.54323483 209.34590912 C79.21581466 207.10586597 78.89110562 204.865439 78.56640625 202.625 C78.33045669 201.0071766 78.09432713 199.38937944 77.85803223 197.77160645 C77.35380967 194.3170537 76.85076067 190.86233297 76.34866333 187.4074707 C75.55329121 181.9347781 74.75528268 176.46247201 73.95678711 170.99023438 C73.13032325 165.32561662 72.30398807 159.66098037 71.47853088 153.99621582 C68.91539657 136.40737691 66.33833331 118.82059424 63.7572937 101.234375 C63.19345117 97.39255322 62.6298452 93.55069681 62.06640148 89.70881653 C61.85115461 88.24126988 61.63585915 86.77373036 61.42051411 85.30619812 C60.89959333 81.75609814 60.37927511 78.20591231 59.86036682 74.65551758 C58.89832426 68.07916256 57.92817157 61.50423847 56.93469715 54.93254852 C56.46181176 51.80207296 55.99258936 48.67105282 55.52358818 45.53999329 C55.2998531 44.05361568 55.07429235 42.56751155 54.84675789 41.08171082 C54.53180954 39.02454178 54.22317342 36.96651135 53.91577148 34.90820312 C53.73852036 33.74003052 53.56126923 32.57185791 53.37864685 31.36828613 C52.98693139 27.88374701 52.93464558 24.50345713 53 21 C52.34 21 51.68 21 51 21 C50.87584717 21.92554688 50.75169434 22.85109375 50.6237793 23.8046875 C47.30033825 48.47217593 43.65550154 73.08667538 39.875 97.6875 C39.76019791 98.43463005 39.64539581 99.1817601 39.52711487 99.95153046 C39.29337711 101.47264229 39.05963085 102.99375282 38.82587624 104.51486206 C38.22618019 108.41743169 37.6266789 112.32003118 37.02734375 116.22265625 C36.90629398 117.01072914 36.78524422 117.79880203 36.66052628 118.61075592 C33.67458935 138.05792756 30.75106121 157.51443018 27.83512115 176.9722023 C27.44065841 179.60392814 27.04590266 182.23560988 26.65106201 184.86727905 C26.02761692 189.02298581 25.40476895 193.1787816 24.78245354 197.33465767 C24.5547655 198.85497507 24.32695364 200.37527394 24.09900093 201.89555168 C23.78353419 204.00011989 23.46870854 206.10478307 23.15405273 208.20947266 C22.9784935 209.38240875 22.80293427 210.55534485 22.62205505 211.76382446 C21.72982214 217.83990283 20.86850225 223.92048425 20 230 C-0.79 230 -21.58 230 -43 230 C-39.72401969 211.65451028 -36.41836133 193.31886005 -33 175 C-32.78964111 173.8718689 -32.57928223 172.74373779 -32.36254883 171.5814209 C-31.2785668 165.7687786 -30.19347636 159.95634399 -29.10766602 154.14404297 C-25.23135153 133.39281234 -21.36976075 112.63902903 -17.5625 91.875 C-17.20933154 89.95027272 -16.85614129 88.02554944 -16.50292969 86.10083008 C-14.95458966 77.66194488 -13.40688721 69.22294363 -11.86179829 60.78346252 C-10.48832775 53.2816167 -9.1126648 45.78017812 -7.73376942 38.27932739 C-7.05036593 34.5612536 -6.36808946 30.84298082 -5.68850708 27.12420654 C-5.05033324 23.63208792 -4.40932231 20.14050209 -3.76614571 16.64930153 C-3.4130774 14.72854848 -3.06306813 12.80723392 -2.71311951 10.88591003 C-2.50163773 9.74092545 -2.29015594 8.59594086 -2.07226562 7.41625977 C-1.88845337 6.41377701 -1.70464111 5.41129425 -1.51525879 4.37843323 C-1 2 -1 2 0 0 Z " fill="#FEFEFE" transform="translate(572,284)"/>
<path d="M0 0 C0.76250061 -0.00100708 1.52500122 -0.00201416 2.31060791 -0.00305176 C24.56595033 0.01686563 47.51492159 2.42279798 64.5 18.375 C79.57576095 34.31100409 78.6875 51.73710526 78.6875 73.25 C59.8775 73.25 41.0675 73.25 21.6875 73.25 C21.3575 66.98 21.0275 60.71 20.6875 54.25 C18.7040844 47.42705034 16.8327595 44.58170847 10.6875 41.125 C4.07258075 38.23097283 -3.39655902 38.1958928 -10.125 40.75 C-14.86892925 43.09257745 -17.140874 46.52865241 -19.3125 51.25 C-21.31826842 57.26730526 -20.66955266 63.18393336 -18.44140625 69.0390625 C-11.34194325 82.94320112 8.60493719 90.25876574 21.71710205 97.15158081 C37.79661103 105.60523958 53.82022622 114.17444302 66.6875 127.25 C67.88632813 128.45076172 67.88632813 128.45076172 69.109375 129.67578125 C80.44960302 141.59043259 84.28361126 155.17623695 84.0625 171.4375 C84.05307373 172.52248779 84.04364746 173.60747559 84.03393555 174.7253418 C83.69780331 192.81621967 80.65377303 209.73585627 67.6875 223.25 C50.36858399 239.85717973 25.63525691 243.68531302 2.5625 243.5625 C1.83483429 243.56034485 1.10716858 243.5581897 0.35745239 243.55596924 C-23.61328945 243.44208147 -46.10271742 239.32483561 -64.71484375 223.1640625 C-81.49395276 205.83745857 -80.3125 183.28848717 -80.3125 160.25 C-60.1825 160.25 -40.0525 160.25 -19.3125 160.25 C-18.8175 174.11 -18.8175 174.11 -18.3125 188.25 C-15.33376984 194.20746031 -13.0117529 197.39390632 -7.078125 200.37109375 C-0.76599667 202.37706674 8.53819149 202.50559358 14.8125 200.0625 C20.87432795 196.24091281 23.41953891 192.72191734 25.17578125 185.859375 C26.84073575 177.36937799 25.48706994 171.52028452 20.6875 164.25 C11.41395332 152.21266231 -4.01744579 145.20332383 -17.10205078 138.21923828 C-44.79657084 123.40730831 -44.79657084 123.40730831 -56.3125 113.25 C-57.43785156 112.35474609 -57.43785156 112.35474609 -58.5859375 111.44140625 C-70.74846596 101.45817044 -77.18378526 88.78173346 -79.3125 73.25 C-80.40213315 54.53764611 -78.07150241 35.87968322 -65.3125 21.25 C-47.50656986 3.90377546 -24.00402014 0.02184462 0 0 Z " fill="#FDFEFE" transform="translate(1155.3125,277.75)"/>
</svg>
